<?xml version="1.0" encoding="UTF-8"?>
<svg width="208px" height="51px" viewBox="0 0 208 51" version="1.1" xmlns="http://www.w3.org/2000/svg" xmlns:xlink="http://www.w3.org/1999/xlink">
    <!-- Generator: Sketch 42 (36781) - http://www.bohemiancoding.com/sketch -->
    <title>Desktop HD</title>
    <desc>Created with Sketch.</desc>
    <defs></defs>
    <g id="Page-1" stroke="none" stroke-width="1" fill="none" fill-rule="evenodd">
        <g id="Desktop-HD" fill="#FFFFFF">
            <g id="Layer_1" transform="translate(5.000000, 3.000000)">
                <g id="Group" transform="translate(0.000000, 16.551724)" fill-rule="nonzero">
                    <path d="M10.985677,8.76077586 L10.985677,8.38577586 C10.985677,5.76077586 10.0546874,4.44827586 8.00651032,4.44827586 C6.88932283,4.44827586 6.14453118,5.01077586 5.58593743,5.94827586 C5.02734369,6.88577586 4.84114578,8.38577586 4.84114578,10.4482759 C4.84114578,12.3232759 5.2135416,13.8232759 5.77213535,14.7607759 C6.33072909,15.6982759 7.26171866,16.2607759 8.37890615,16.2607759 C8.93749989,16.2607759 9.68229155,16.0732759 10.4270832,15.8857759 C11.1718749,15.5107759 11.9166665,15.1357759 12.8476561,14.5732759 C13.2200519,14.9482759 13.7786457,15.3232759 14.1510415,15.8857759 C14.5234373,16.4482759 14.7096352,16.8232759 14.8958332,17.3857759 C14.5234373,17.7607759 13.9648436,18.1357759 13.4062498,18.5107759 C12.8476561,18.8857759 12.2890624,19.0732759 11.7304686,19.4482759 C11.1718749,19.8232759 10.4270832,19.8232759 9.86848947,20.0107759 C9.30989572,20.1982759 8.56510406,20.1982759 7.82031241,20.1982759 C6.51692701,20.1982759 5.39973952,20.0107759 4.46874995,19.4482759 C3.53776037,18.8857759 2.79296872,18.3232759 2.23437497,17.3857759 C1.67578123,16.4482759 1.3033854,15.5107759 0.930989572,14.3857759 C0.744791658,13.2607759 0.558593743,12.1357759 0.558593743,10.8232759 C0.558593743,9.32327586 0.744791658,7.82327586 1.11718749,6.69827586 C1.48958332,5.57327586 2.04817706,4.44827586 2.79296872,3.69827586 C3.53776037,2.94827586 4.28255203,2.38577586 5.2135416,1.82327586 C6.14453118,1.44827586 7.07552075,1.26077586 8.19270824,1.26077586 C9.30989572,1.26077586 10.2408853,1.44827586 10.985677,1.63577586 C11.9166665,2.01077586 12.6614582,2.38577586 13.2200519,2.76077586 C13.7786457,3.13577586 14.3372394,3.88577586 14.5234373,4.44827586 C14.8958332,5.19827586 15.0820311,5.76077586 15.0820311,6.69827586 C15.0820311,8.19827586 14.3372394,9.13577586 12.6614582,9.13577586 C12.1028644,8.94827586 11.5442707,8.94827586 10.985677,8.76077586 Z" id="Shape"></path>
                    <path d="M26.4401039,7.44827586 C27.7434893,8.76077586 28.302083,10.4482759 28.302083,12.8857759 C28.302083,14.0107759 28.1158851,14.9482759 27.9296872,15.6982759 C27.7434893,16.6357759 27.1848955,17.3857759 26.8124997,17.9482759 C26.2539059,18.5107759 25.6953122,19.0732759 24.9505205,19.2607759 C24.2057289,19.4482759 23.2747393,19.8232759 22.3437497,19.8232759 C21.4127602,19.8232759 20.4817706,19.6357759 19.7369789,19.2607759 C18.9921873,18.8857759 18.4335935,18.5107759 17.8749998,17.7607759 C17.316406,17.1982759 16.9440102,16.4482759 16.7578123,15.5107759 C16.5716144,14.5732759 16.3854165,13.6357759 16.3854165,12.6982759 C16.3854165,11.5732759 16.5716144,10.6357759 16.7578123,9.88577586 C16.9440102,8.94827586 17.316406,8.19827586 17.8749998,7.63577586 C18.4335935,7.07327586 18.9921873,6.51077586 19.7369789,6.13577586 C20.4817706,5.76077586 21.2265622,5.94827586 22.3437497,5.94827586 C24.019531,5.94827586 25.5091143,6.51077586 26.4401039,7.44827586 Z M22.3437497,9.13577586 C21.9713539,9.13577586 21.5989581,9.13577586 21.4127602,9.32327586 C21.2265622,9.51077586 21.0403643,9.69827586 20.8541664,10.0732759 C20.6679685,10.4482759 20.6679685,10.8232759 20.4817706,11.1982759 L20.4817706,12.5107759 L20.4817706,14.3857759 C20.4817706,14.9482759 20.6679685,15.3232759 20.6679685,15.6982759 C20.8541664,16.0732759 21.0403643,16.2607759 21.2265622,16.4482759 C21.4127602,16.6357759 21.785156,16.6357759 22.1575518,16.6357759 C22.9023435,16.6357759 23.4609372,16.2607759 23.6471351,15.6982759 C23.833333,15.1357759 24.019531,14.0107759 24.019531,12.8857759 C24.019531,11.5732759 23.833333,10.6357759 23.6471351,10.0732759 C23.4609372,9.32327586 23.0885414,9.13577586 22.3437497,9.13577586 Z" id="Shape"></path>
                    <path d="M42.0807287,10.8232759 L42.0807287,16.2607759 C42.0807287,17.3857759 42.2669266,18.3232759 42.6393224,18.8857759 C41.8945308,19.4482759 41.1497391,19.8232759 40.2187495,19.8232759 C39.2877599,19.8232759 38.7291662,19.6357759 38.3567704,19.2607759 C37.9843745,18.8857759 37.7981766,18.1357759 37.7981766,17.3857759 L37.7981766,11.7607759 C37.7981766,11.1982759 37.7981766,10.6357759 37.6119787,10.4482759 C37.4257808,10.0732759 37.2395829,10.0732759 36.6809891,10.0732759 C36.4947912,10.0732759 36.1223954,10.0732759 35.7499996,10.2607759 C35.3776037,10.4482759 35.0052079,10.6357759 34.6328121,11.0107759 L34.6328121,19.8232759 C34.2604163,19.8232759 34.0742183,19.8232759 33.7018225,20.0107759 C33.3294267,20.1982759 32.9570309,20.0107759 32.584635,20.0107759 L31.4674475,20.0107759 C31.0950517,20.0107759 30.7226559,20.0107759 30.536458,19.8232759 L30.536458,6.51077586 L30.7226559,6.32327586 L32.2122392,6.32327586 C33.3294267,6.32327586 34.0742183,6.88577586 34.4466142,7.82327586 C35.7499996,6.69827586 36.8671871,6.13577586 38.1705725,6.13577586 C39.4739579,6.13577586 40.4049474,6.51077586 40.9635412,7.44827586 C41.7083328,8.19827586 42.0807287,9.51077586 42.0807287,10.8232759 Z" id="Shape"></path>
                    <path d="M52.8802077,6.32327586 C53.0664056,6.88577586 53.0664056,7.26077586 53.0664056,7.82327586 C53.0664056,8.38577586 53.0664056,8.76077586 52.8802077,9.32327586 L49.7148432,9.32327586 L49.7148432,15.3232759 C49.7148432,16.0732759 50.087239,16.6357759 50.8320306,16.6357759 L52.321614,16.6357759 C52.5078119,17.1982759 52.6940098,17.9482759 52.6940098,18.3232759 C52.6940098,18.6982759 52.6940098,19.2607759 52.5078119,19.4482759 C51.2044265,19.6357759 50.087239,19.6357759 48.9700515,19.6357759 C46.7356765,19.6357759 45.618489,18.3232759 45.618489,15.8857759 L45.618489,9.13577586 L43.570312,9.13577586 C43.3841141,8.76077586 43.3841141,8.19827586 43.3841141,7.63577586 C43.3841141,7.07327586 43.3841141,6.69827586 43.570312,6.13577586 L45.618489,6.13577586 L45.618489,4.63577586 C45.618489,3.69827586 45.804687,3.13577586 46.1770828,2.76077586 C46.5494786,2.38577586 47.1080724,2.19827586 47.852864,2.19827586 L49.5286452,2.19827586 L49.7148432,2.38577586 L49.7148432,6.13577586 L52.8802077,6.32327586 Z" id="Shape"></path>
                    <path d="M54.1835931,8.19827586 C54.1835931,7.82327586 54.369791,7.44827586 54.7421868,7.07327586 C54.9283848,6.69827586 55.3007806,6.32327586 55.4869785,6.13577586 C57.1627597,6.32327586 58.2799472,7.07327586 58.838541,8.57327586 C59.5833326,7.07327586 60.5143222,6.13577586 62.1901034,6.13577586 C62.5624993,6.13577586 63.3072909,6.13577586 63.8658847,6.32327586 C63.8658847,6.88577586 63.8658847,7.44827586 63.6796867,8.19827586 C63.4934888,8.94827586 63.3072909,9.51077586 62.9348951,10.0732759 C62.5624993,9.88577586 62.1901034,9.88577586 61.6315097,9.88577586 C60.7005201,9.88577586 59.9557285,10.2607759 59.3971347,11.1982759 L59.3971347,19.4482759 C58.838541,19.6357759 58.0937493,19.6357759 57.3489577,19.6357759 C56.604166,19.6357759 55.8593743,19.6357759 55.3007806,19.4482759 L55.3007806,10.8232759 C55.3007806,9.69827586 54.9283848,8.76077586 54.1835931,8.19827586 Z" id="Shape"></path>
                    <path d="M74.6653637,7.44827586 C75.9687491,8.76077586 76.5273428,10.4482759 76.5273428,12.8857759 C76.5273428,14.0107759 76.3411449,14.9482759 76.154947,15.6982759 C75.9687491,16.6357759 75.4101554,17.3857759 75.0377595,17.9482759 C74.4791658,18.5107759 73.920572,19.0732759 73.1757804,19.2607759 C72.4309887,19.4482759 71.4999991,19.8232759 70.5690096,19.8232759 C69.63802,19.8232759 68.7070304,19.6357759 67.9622388,19.2607759 C67.2174471,18.8857759 66.6588534,18.5107759 66.1002596,17.7607759 C65.5416659,17.1982759 65.1692701,16.4482759 64.9830721,15.5107759 C64.7968742,14.5732759 64.6106763,13.6357759 64.6106763,12.6982759 C64.6106763,11.5732759 64.7968742,10.6357759 64.9830721,9.88577586 C65.1692701,8.94827586 65.5416659,8.19827586 66.1002596,7.63577586 C66.6588534,7.07327586 67.2174471,6.51077586 67.9622388,6.13577586 C68.7070304,5.76077586 69.63802,5.57327586 70.5690096,5.57327586 C72.0585929,5.94827586 73.5481762,6.51077586 74.6653637,7.44827586 Z M70.3828117,9.13577586 C70.0104158,9.13577586 69.63802,9.13577586 69.4518221,9.32327586 C69.2656242,9.51077586 69.0794263,9.69827586 68.8932283,10.0732759 C68.7070304,10.4482759 68.7070304,10.8232759 68.5208325,11.1982759 L68.5208325,12.5107759 L68.5208325,14.3857759 C68.5208325,14.9482759 68.7070304,15.3232759 68.7070304,15.6982759 C68.8932283,16.0732759 69.0794263,16.2607759 69.2656242,16.4482759 C69.4518221,16.6357759 69.8242179,16.6357759 70.1966137,16.6357759 C70.9414054,16.6357759 71.4999991,16.2607759 71.6861971,15.6982759 C71.872395,15.1357759 72.0585929,14.0107759 72.0585929,12.8857759 C72.0585929,11.5732759 71.872395,10.6357759 71.6861971,10.0732759 C71.6861971,9.32327586 71.1276033,9.13577586 70.3828117,9.13577586 Z" id="Shape"></path>
                    <path d="M83.9752594,16.6357759 L84.7200511,16.6357759 C84.906249,17.1982759 85.0924469,17.7607759 85.0924469,18.3232759 L85.0924469,19.4482759 C83.9752594,19.6357759 83.0442698,19.6357759 82.2994782,19.6357759 C81.1822907,19.6357759 80.2513011,19.2607759 79.6927074,18.6982759 C79.1341136,18.1357759 78.9479157,17.1982759 78.9479157,15.8857759 L78.9479157,0.323275862 L79.1341136,0.135775862 L80.8098949,0.135775862 C81.5546865,0.135775862 82.2994782,0.323275862 82.4856761,0.698275862 C82.8580719,1.07327586 83.0442698,1.63577586 83.0442698,2.57327586 L83.0442698,15.3232759 C82.8580719,16.0732759 83.2304678,16.6357759 83.9752594,16.6357759 Z" id="Shape"></path>
                </g>
                <g id="Group" transform="translate(109.054250, 16.875000)" fill-rule="nonzero">
                    <path d="M0.0577280272,19.3125 L1.36111343,1.3125 C2.10590509,1.125 3.03689466,1.125 4.15408215,1.125 C5.27126963,1.125 6.2022592,1.125 6.94705086,1.3125 L8.43663418,7.875 C8.99522792,10.875 9.36762375,12.375 9.36762375,12.75 L9.55382166,12.75 C9.55382166,12.375 9.92621749,10.6875 10.4848112,7.875 L11.9743946,1.3125 C12.7191862,1.125 13.6501758,1.125 14.7673633,1.125 C15.8845508,1.125 16.8155403,1.125 17.560332,1.3125 L18.8637174,19.3125 C18.3051236,19.5 17.560332,19.5 16.8155403,19.5 C16.0707487,19.5 15.325957,19.5 14.7673633,19.3125 L14.3949674,12 C14.2087695,9 14.2087695,6.9375 14.2087695,5.8125 L14.0225716,5.8125 L11.4158008,16.6875 C10.8572071,16.875 10.1124154,16.875 9.18142584,16.875 C8.25043626,16.875 7.69184252,16.875 6.94705086,16.6875 L4.34028006,5.8125 L4.52647797,5.8125 C4.52647797,7.3125 4.52647797,9.375 4.34028006,12 L3.96788423,19.3125 C3.40929049,19.3125 2.85069674,19.5 1.91970717,19.5 C0.988717599,19.5 0.430123856,19.3125 0.0577280272,19.3125 Z" id="Shape"></path>
                    <path d="M24.2634569,18 C22.4014778,16.5 21.4704882,13.875 21.4704882,10.3125 C21.4704882,8.8125 21.6566861,7.3125 22.0290819,6.1875 C22.4014778,5.0625 22.9600715,3.9375 23.5186652,3.1875 C24.2634569,2.4375 25.0082486,1.875 25.9392381,1.3125 C26.8702277,0.75 27.9874152,0.75 29.2908006,0.75 C30.594186,0.75 31.5251756,0.9375 32.6423631,1.3125 C33.5733526,1.6875 34.5043422,2.25 35.0629359,3.1875 C35.8077276,3.9375 36.1801234,5.0625 36.5525193,6.1875 C36.9249151,7.3125 37.111113,8.8125 37.111113,10.3125 C37.111113,11.8125 36.9249151,13.125 36.5525193,14.4375 C36.1801234,15.5625 35.6215297,16.6875 35.0629359,17.4375 C34.3181443,18.1875 33.5733526,18.75 32.6423631,19.3125 C31.7113735,19.6875 30.594186,19.875 29.2908006,19.875 C27.2426235,19.6875 25.5668423,19.125 24.2634569,18 Z M26.311634,14.4375 C26.8702277,15.75 27.8012173,16.5 29.1046027,16.5 C29.8493943,16.5 30.4079881,16.3125 30.7803839,15.9375 C31.1527797,15.5625 31.5251756,15.1875 31.8975714,14.625 C32.0837693,14.0625 32.2699672,13.5 32.4561651,12.75 C32.4561651,12 32.6423631,11.4375 32.6423631,10.6875 L32.6423631,8.625 C32.6423631,7.875 32.4561651,7.125 32.2699672,6.5625 C32.0837693,5.8125 31.7113735,5.25 31.3389777,4.875 C30.9665818,4.5 30.2217902,4.125 29.2908006,4.125 C28.359811,4.125 27.8012173,4.3125 27.4288215,4.6875 C27.0564256,5.0625 26.6840298,5.625 26.4978319,6.375 C26.311634,6.9375 26.1254361,7.6875 26.1254361,8.4375 L26.1254361,10.3125 C26.1254361,11.0625 26.1254361,11.8125 26.311634,12.5625 C25.9392381,12.9375 26.1254361,13.6875 26.311634,14.4375 Z" id="Shape"></path>
                    <path d="M54.2413211,0.9375 L54.2413211,0.9375 L54.427519,19.125 C53.6827274,19.3125 52.9379357,19.3125 52.0069462,19.3125 C51.0759566,19.3125 50.144967,19.3125 49.4001754,19.125 L45.3038212,9.5625 C44.7452275,8.4375 44.3728317,7.3125 43.8142379,5.8125 L43.8142379,5.8125 C44.0004358,8.4375 44.1866338,11.0625 44.1866338,13.6875 L44.1866338,18.9375 C43.62804,19.125 43.0694463,19.125 42.1384567,19.125 C41.393665,19.125 40.6488734,19.125 40.2764775,18.9375 L40.2764775,0.9375 C41.0212692,0.75 41.7660609,0.75 42.6970504,0.75 C43.62804,0.75 44.5590296,0.75 45.1176233,0.9375 L49.2139774,10.3125 C49.9587691,12 50.5173628,13.3125 50.8897587,14.25 L51.0759566,14.25 C50.8897587,11.8125 50.7035608,9.1875 50.7035608,6.375 L50.7035608,3.1875 C50.7035608,2.25 50.8897587,1.6875 51.2621545,1.125 C51.6345503,0.75 52.1931441,0.5625 53.1241336,0.5625 L54.2413211,0.5625 L54.2413211,0.9375 Z" id="Shape"></path>
                    <path d="M62.4340294,13.875 L62.4340294,15.75 L62.4340294,15.75 L64.2960085,15.75 L70.4405397,15.75 L70.4405397,17.25 C70.2543418,18.5625 69.3233522,19.3125 67.8337689,19.3125 L60.7582481,19.3125 C60.0134565,19.3125 59.4548627,19.125 58.896269,18.5625 C58.5238732,18.1875 58.3376753,17.4375 58.3376753,16.6875 L58.3376753,1.125 L58.5238732,0.9375 L69.8819459,0.9375 C70.0681439,1.5 70.0681439,2.0625 70.0681439,2.625 C70.0681439,3.1875 69.8819459,3.9375 69.695748,4.5 L62.6202273,4.5 L62.6202273,6.375 L62.6202273,8.25 L64.4822064,8.25 L68.5785605,8.25 C68.7647585,8.8125 68.7647585,9.375 68.7647585,9.9375 C68.7647585,10.5 68.7647585,11.25 68.5785605,11.625 L62.8064252,11.625 L62.8064252,13.875 L62.4340294,13.875 Z" id="Shape"></path>
                    <path d="M80.1228312,5.625 L81.9848104,1.125 C82.3572062,0.9375 83.1019979,0.9375 83.6605916,0.9375 C84.4053833,0.9375 85.1501749,1.125 85.7087687,1.3125 L85.8949666,1.5 L80.8676229,13.6875 L80.8676229,19.3125 C80.3090292,19.5 79.5642375,19.5 78.8194458,19.5 C77.8884563,19.5 77.3298625,19.5 76.7712688,19.3125 L76.7712688,13.6875 L71.7439251,1.6875 C72.4887167,1.125 73.2335084,0.9375 73.9783001,0.9375 C74.7230917,0.9375 75.2816855,1.125 75.6540813,1.3125 C76.0264771,1.5 76.212675,2.0625 76.5850709,2.625 L77.8884563,5.8125 C78.2608521,6.9375 78.8194458,8.25 79.0056438,9.5625 L79.1918417,9.5625 C79.0056438,8.4375 79.3780396,7.125 80.1228312,5.625 Z" id="Shape"></path>
                </g>
                <g id="Group" transform="translate(87.513020, 0.000000)">
                    <path d="M7.07552075,17.25 L15.4544269,9 L15.4544269,5.25 C15.4544269,3.1875 13.7786457,0.5625 11.9166665,0 L3.53776037,8.25 C5.58593743,8.8125 7.07552075,11.25 7.07552075,13.5 L7.07552075,17.25 Z" id="Shape"></path>
                    <g transform="translate(0.000000, 14.494787)">
                        <path d="M1.67578123,10.8177125 L1.67578123,19.2552125 C3.9101562,23.3802125 8.75130198,27.5052125 8.75130198,27.5052125 L8.75130198,25.2552125 L7.63411449,24.3177125 L7.63411449,23.5677125 L8.75130198,24.5052125 L8.75130198,22.2552125 L7.63411449,21.3177125 L7.63411449,20.1927125 L8.75130198,21.1302125 L8.75130198,19.0677125 L7.63411449,18.1302125 L7.63411449,17.0052125 L8.75130198,17.9427125 L8.75130198,15.6927125 L6.88932283,13.8177125 L8.75130198,12.8802125 L8.75130198,10.6302125 L3.35156246,12.5052125 L1.67578123,10.8177125 Z" id="Shape"></path>
                        <polygon id="Path-2" fill-rule="nonzero" points="2.32747393 3.86116453 8.93138933 10.1200791 9.99873198 8.99379422 0.775824644 0.252708767 0.775824644 22.5927448 8.19256517 28.7736601 9.18590684 27.5815926 2.32747393 21.8659561"></polygon>
                    </g>
                    <g transform="translate(8.507376, 7.500000)">
                        <path d="M7.50564461,13.125 L8.80903001,11.4375 L8.80903001,23.8125 C8.80903001,25.6875 8.43663418,27.1875 7.87804043,27.9375 C7.69184252,28.3125 0.0577280272,36 0.0577280272,36 L0.0577280272,12.9375 C0.0577280272,12 0.430123856,11.0625 1.17491551,10.5 C1.36111343,10.3125 1.54731134,10.3125 1.73350926,10.125 C1.91970717,9.9375 2.292103,9.75 2.47830092,9.75 C2.85069674,9.5625 3.40929049,9.5625 3.78168632,9.5625 L4.15408215,9.5625 C6.01606129,9.5625 7.50564461,11.25 7.50564461,13.125 Z M0.243925942,19.6875 L1.36111343,18.75 C2.47830092,17.625 2.66449883,16.5 2.292103,16.3125 C2.10590509,16.125 1.91970717,15.9375 1.36111343,16.5 L0.243925942,17.625 L0.243925942,19.6875 Z M3.78168632,28.875 L0.243925942,32.25 L0.243925942,34.5 L3.78168632,31.125 C4.8988738,30 5.08507172,29.0625 4.71267589,28.6875 C4.52647797,28.5 4.15408215,28.5 3.78168632,28.875 Z M5.45746755,24 L0.430123856,29.25 L0.430123856,31.5 L5.45746755,26.625 C6.57465503,25.5 6.94705086,24.1875 6.57465503,24 C6.2022592,23.625 5.82986338,23.625 5.45746755,24 Z M6.01606129,20.25 L0.430123856,26.0625 L0.430123856,28.125 L6.01606129,22.875 C7.13324878,21.75 7.50564461,20.4375 7.13324878,20.25 C6.76085295,19.875 6.38845712,19.875 6.01606129,20.25 Z M4.15408215,18.75 L0.243925942,22.6875 L0.243925942,24.9375 L3.96788423,21.1875 C5.08507172,20.0625 5.45746755,18.75 5.08507172,18.5625 C4.8988738,18.375 4.52647797,18.375 4.15408215,18.75 Z" id="Combined-Shape"></path>
                        <path d="M7.50564461,13.125 L16.0707487,4.6875 C16.0707487,2.8125 14.3949674,0.9375 12.3467904,0.9375 C11.2296029,0.9375 10.1124154,1.5 9.36762375,2.4375 C9.36762375,2.4375 2.66449883,9 1.36111343,10.3125 C2.10590509,9.75 2.85069674,9.375 3.78168632,9.375 C5.82986338,9.375 7.50564461,11.0625 7.50564461,13.125 Z" id="Shape"></path>
                    </g>
                </g>
            </g>
        </g>
    </g>
</svg>