<?xml version="1.0" encoding="UTF-8"?>
<svg width="151px" height="42px" viewBox="0 0 151 42" version="1.1" xmlns="http://www.w3.org/2000/svg" xmlns:xlink="http://www.w3.org/1999/xlink">
    <!-- Generator: Sketch 42 (36781) - http://www.bohemiancoding.com/sketch -->
    <title>Desktop HD</title>
    <desc>Created with Sketch.</desc>
    <defs></defs>
    <g id="Page-1" stroke="none" stroke-width="1" fill="none" fill-rule="evenodd">
        <g id="Desktop-HD" fill-rule="nonzero">
            <g id="logo-controlmoney" transform="translate(6.000000, 5.000000)">
                <g id="LogoControlMoney">
                    <g id="Page-1">
                        <g id="Desktop-Copy">
                            <g id="LogoControlMoney">
                                <g id="Layer_1">
                                    <g id="Group" transform="translate(0.000000, 11.770115)" fill="#051020">
                                        <path d="M7.74897638,6.22988506 L7.74897638,5.96321839 C7.74897638,4.09655173 7.09228347,3.16321839 5.64755905,3.16321839 C4.85952755,3.16321839 4.33417322,3.56321839 3.94015748,4.22988506 C3.54614173,4.89655173 3.41480315,5.96321839 3.41480315,7.42988506 C3.41480315,8.76321839 3.67748032,9.82988506 4.07149606,10.4965517 C4.46551182,11.1632184 5.12220473,11.5632184 5.91023622,11.5632184 C6.30425196,11.5632184 6.8296063,11.4298851 7.35496063,11.2965517 C7.88031496,11.0298851 8.4056693,10.7632184 9.06236221,10.3632184 C9.32503937,10.6298851 9.71905512,10.8965517 9.98173228,11.2965517 C10.2444094,11.6965517 10.375748,11.9632184 10.5070866,12.3632184 C10.2444094,12.6298851 9.8503937,12.8965517 9.45637795,13.1632184 C9.06236221,13.4298851 8.66834646,13.5632184 8.2743307,13.8298851 C7.88031496,14.0965517 7.35496063,14.0965517 6.96094488,14.2298851 C6.56692914,14.3632184 6.0415748,14.3632184 5.51622047,14.3632184 C4.5968504,14.3632184 3.8088189,14.2298851 3.15212599,13.8298851 C2.49543307,13.4298851 1.97007874,13.0298851 1.57606299,12.3632184 C1.18204724,11.6965517 0.919370079,11.0298851 0.656692914,10.2298851 C0.525354331,9.42988506 0.394015748,8.62988506 0.394015748,7.69655173 C0.394015748,6.62988506 0.525354331,5.56321839 0.788031496,4.76321839 C1.05070866,3.96321839 1.44472441,3.16321839 1.97007874,2.62988506 C2.49543307,2.09655173 3.02078741,1.69655173 3.67748032,1.29655172 C4.33417322,1.02988506 4.99086613,0.896551724 5.77889764,0.896551724 C6.56692914,0.896551724 7.22362205,1.02988506 7.74897638,1.16321839 C8.4056693,1.42988506 8.93102362,1.69655173 9.32503937,1.96321839 C9.71905512,2.22988506 10.1130709,2.76321839 10.2444094,3.16321839 C10.5070866,3.69655173 10.6384252,4.09655173 10.6384252,4.76321839 C10.6384252,5.82988506 10.1130709,6.49655173 8.93102362,6.49655173 C8.53700788,6.36321839 8.14299212,6.36321839 7.74897638,6.22988506 Z" id="Shape"></path>
                                        <path d="M18.6500788,5.29655173 C19.5694488,6.22988506 19.9634646,7.42988506 19.9634646,9.16321839 C19.9634646,9.96321839 19.8321259,10.6298851 19.7007874,11.1632184 C19.5694488,11.8298851 19.1754331,12.3632184 18.9127559,12.7632184 C18.5187401,13.1632184 18.1247245,13.5632184 17.5993701,13.6965517 C17.0740158,13.8298851 16.4173228,14.0965517 15.7606299,14.0965517 C15.103937,14.0965517 14.4472441,13.9632184 13.9218898,13.6965517 C13.3965354,13.4298851 13.0025197,13.1632184 12.6085039,12.6298851 C12.2144882,12.2298851 11.951811,11.6965517 11.8204724,11.0298851 C11.6891339,10.3632184 11.5577953,9.69655173 11.5577953,9.02988506 C11.5577953,8.22988506 11.6891339,7.56321839 11.8204724,7.02988506 C11.951811,6.36321839 12.2144882,5.82988506 12.6085039,5.42988506 C13.0025197,5.02988506 13.3965354,4.62988506 13.9218898,4.36321839 C14.4472441,4.09655173 14.9725984,4.22988506 15.7606299,4.22988506 C16.9426772,4.22988506 17.9933858,4.62988506 18.6500788,5.29655173 Z M15.7606299,6.49655173 C15.4979527,6.49655173 15.2352756,6.49655173 15.103937,6.62988506 C14.9725984,6.76321839 14.8412598,6.89655173 14.7099213,7.16321839 C14.5785827,7.42988506 14.5785827,7.69655173 14.4472441,7.96321839 L14.4472441,8.89655173 L14.4472441,10.2298851 C14.4472441,10.6298851 14.5785827,10.8965517 14.5785827,11.1632184 C14.7099213,11.4298851 14.8412598,11.5632184 14.9725984,11.6965517 C15.103937,11.8298851 15.3666142,11.8298851 15.6292914,11.8298851 C16.1546457,11.8298851 16.5486613,11.5632184 16.68,11.1632184 C16.8113387,10.7632184 16.9426772,9.96321839 16.9426772,9.16321839 C16.9426772,8.22988506 16.8113387,7.56321839 16.68,7.16321839 C16.5486613,6.62988506 16.2859842,6.49655173 15.7606299,6.49655173 Z" id="Shape"></path>
                                        <path d="M29.6825196,7.69655173 L29.6825196,11.5632184 C29.6825196,12.3632184 29.8138583,13.0298851 30.0765354,13.4298851 C29.5511811,13.8298851 29.0258268,14.0965517 28.3691338,14.0965517 C27.712441,14.0965517 27.3184252,13.9632184 27.055748,13.6965517 C26.7930709,13.4298851 26.6617322,12.8965517 26.6617322,12.3632184 L26.6617322,8.36321839 C26.6617322,7.96321839 26.6617322,7.56321839 26.5303937,7.42988506 C26.399055,7.16321839 26.2677165,7.16321839 25.8737007,7.16321839 C25.7423622,7.16321839 25.4796851,7.16321839 25.2170079,7.29655173 C24.9543307,7.42988506 24.6916536,7.56321839 24.4289764,7.82988506 L24.4289764,14.0965517 C24.1662993,14.0965517 24.0349606,14.0965517 23.7722835,14.2298851 C23.5096063,14.3632184 23.2469291,14.2298851 22.984252,14.2298851 L22.1962205,14.2298851 C21.9335433,14.2298851 21.6708662,14.2298851 21.5395275,14.0965517 L21.5395275,4.62988506 L21.6708662,4.49655173 L22.7215748,4.49655173 C23.5096063,4.49655173 24.0349606,4.89655173 24.2976378,5.56321839 C25.2170079,4.76321839 26.0050394,4.36321839 26.9244095,4.36321839 C27.8437795,4.36321839 28.5004725,4.62988506 28.8944881,5.29655173 C29.4198425,5.82988506 29.6825196,6.76321839 29.6825196,7.69655173 Z" id="Shape"></path>
                                        <path d="M37.3001575,4.49655173 C37.431496,4.89655173 37.431496,5.16321839 37.431496,5.56321839 C37.431496,5.96321839 37.431496,6.22988506 37.3001575,6.62988506 L35.0674016,6.62988506 L35.0674016,10.8965517 C35.0674016,11.4298851 35.3300788,11.8298851 35.8554331,11.8298851 L36.9061417,11.8298851 C37.0374804,12.2298851 37.1688189,12.7632184 37.1688189,13.0298851 C37.1688189,13.2965517 37.1688189,13.6965517 37.0374804,13.8298851 C36.1181102,13.9632184 35.3300788,13.9632184 34.5420473,13.9632184 C32.9659842,13.9632184 32.1779527,13.0298851 32.1779527,11.2965517 L32.1779527,6.49655173 L30.7332284,6.49655173 C30.6018898,6.22988506 30.6018898,5.82988506 30.6018898,5.42988506 C30.6018898,5.02988506 30.6018898,4.76321839 30.7332284,4.36321839 L32.1779527,4.36321839 L32.1779527,3.29655173 C32.1779527,2.62988506 32.3092914,2.22988506 32.5719685,1.96321839 C32.8346457,1.69655173 33.2286613,1.56321839 33.7540158,1.56321839 L34.936063,1.56321839 L35.0674016,1.69655173 L35.0674016,4.36321839 L37.3001575,4.49655173 Z" id="Shape"></path>
                                        <path d="M38.2195275,5.82988506 C38.2195275,5.56321839 38.3508662,5.29655173 38.6135433,5.02988506 C38.7448818,4.76321839 39.007559,4.49655173 39.1388977,4.36321839 C40.320945,4.49655173 41.1089764,5.02988506 41.5029921,6.09655173 C42.0283464,5.02988506 42.6850394,4.36321839 43.8670867,4.36321839 C44.1297638,4.36321839 44.6551182,4.36321839 45.0491338,4.49655173 C45.0491338,4.89655173 45.0491338,5.29655173 44.9177953,5.82988506 C44.7864567,6.36321839 44.6551182,6.76321839 44.392441,7.16321839 C44.1297638,7.02988506 43.8670867,7.02988506 43.4730709,7.02988506 C42.8163779,7.02988506 42.2910236,7.29655173 41.8970079,7.96321839 L41.8970079,13.8298851 C41.5029921,13.9632184 40.9776378,13.9632184 40.4522835,13.9632184 C39.9269291,13.9632184 39.4015748,13.9632184 39.007559,13.8298851 L39.007559,7.69655173 C39.007559,6.89655173 38.7448818,6.22988506 38.2195275,5.82988506 Z" id="Shape"></path>
                                        <path d="M52.6667716,5.29655173 C53.5861417,6.22988506 53.9801575,7.42988506 53.9801575,9.16321839 C53.9801575,9.96321839 53.8488189,10.6298851 53.7174804,11.1632184 C53.5861417,11.8298851 53.1921259,12.3632184 52.9294488,12.7632184 C52.5354331,13.1632184 52.1414173,13.5632184 51.616063,13.6965517 C51.0907086,13.8298851 50.4340158,14.0965517 49.7773228,14.0965517 C49.1206299,14.0965517 48.463937,13.9632184 47.9385827,13.6965517 C47.4132284,13.4298851 47.0192126,13.1632184 46.6251968,12.6298851 C46.2311811,12.2298851 45.968504,11.6965517 45.8371653,11.0298851 C45.7058268,10.3632184 45.5744881,9.69655173 45.5744881,9.02988506 C45.5744881,8.22988506 45.7058268,7.56321839 45.8371653,7.02988506 C45.968504,6.36321839 46.2311811,5.82988506 46.6251968,5.42988506 C47.0192126,5.02988506 47.4132284,4.62988506 47.9385827,4.36321839 C48.463937,4.09655173 49.1206299,3.96321839 49.7773228,3.96321839 C50.8280315,4.22988506 51.8787401,4.62988506 52.6667716,5.29655173 Z M49.6459842,6.49655173 C49.383307,6.49655173 49.1206299,6.49655173 48.9892914,6.62988506 C48.8579527,6.76321839 48.7266142,6.89655173 48.5952755,7.16321839 C48.463937,7.42988506 48.463937,7.69655173 48.3325984,7.96321839 L48.3325984,8.89655173 L48.3325984,10.2298851 C48.3325984,10.6298851 48.463937,10.8965517 48.463937,11.1632184 C48.5952755,11.4298851 48.7266142,11.5632184 48.8579527,11.6965517 C48.9892914,11.8298851 49.2519685,11.8298851 49.5146457,11.8298851 C50.04,11.8298851 50.4340158,11.5632184 50.5653543,11.1632184 C50.696693,10.7632184 50.8280315,9.96321839 50.8280315,9.16321839 C50.8280315,8.22988506 50.696693,7.56321839 50.5653543,7.16321839 C50.5653543,6.62988506 50.1713387,6.49655173 49.6459842,6.49655173 Z" id="Shape"></path>
                                        <path d="M59.2337007,11.8298851 L59.759055,11.8298851 C59.8903937,12.2298851 60.0217322,12.6298851 60.0217322,13.0298851 L60.0217322,13.8298851 C59.2337007,13.9632184 58.5770079,13.9632184 58.0516536,13.9632184 C57.2636221,13.9632184 56.6069291,13.6965517 56.2129133,13.2965517 C55.8188977,12.8965517 55.687559,12.2298851 55.687559,11.2965517 L55.687559,0.229885058 L55.8188977,0.0965517242 L57.000945,0.0965517242 C57.5262993,0.0965517242 58.0516536,0.229885058 58.1829921,0.496551724 C58.4456693,0.763218391 58.5770079,1.16321839 58.5770079,1.82988506 L58.5770079,10.8965517 C58.4456693,11.4298851 58.7083464,11.8298851 59.2337007,11.8298851 Z" id="Shape"></path>
                                    </g>
                                    <g id="Group" transform="translate(76.176378, 12.000000)" fill="#051020">
                                        <path d="M0.788031496,13.7333333 L1.70740158,0.933333333 C2.2327559,0.8 2.88944881,0.8 3.67748032,0.8 C4.46551182,0.8 5.12220473,0.8 5.64755905,0.933333333 L6.69826772,5.6 C7.09228347,7.73333333 7.35496063,8.8 7.35496063,9.06666667 L7.48629921,9.06666667 C7.48629921,8.8 7.74897638,7.6 8.14299212,5.6 L9.19370079,0.933333333 C9.71905512,0.8 10.375748,0.8 11.1637795,0.8 C11.951811,0.8 12.6085039,0.8 13.1338583,0.933333333 L14.0532283,13.7333333 C13.6592126,13.8666667 13.1338583,13.8666667 12.6085039,13.8666667 C12.0831496,13.8666667 11.5577953,13.8666667 11.1637795,13.7333333 L10.9011024,8.53333333 C10.7697638,6.4 10.7697638,4.93333333 10.7697638,4.13333333 L10.6384252,4.13333333 L8.79968504,11.8666667 C8.4056693,12 7.88031496,12 7.22362205,12 C6.56692914,12 6.17291338,12 5.64755905,11.8666667 L3.8088189,4.13333333 L3.94015748,4.13333333 C3.94015748,5.2 3.94015748,6.66666667 3.8088189,8.53333333 L3.54614173,13.7333333 C3.15212599,13.7333333 2.75811023,13.8666667 2.10141732,13.8666667 C1.44472441,13.8666667 1.05070866,13.7333333 0.788031496,13.7333333 Z" id="Shape"></path>
                                        <path d="M17.8620473,12.8 C16.5486613,11.7333333 15.8919685,9.86666667 15.8919685,7.33333333 C15.8919685,6.26666667 16.023307,5.2 16.2859842,4.4 C16.5486613,3.6 16.9426772,2.8 17.336693,2.26666667 C17.8620473,1.73333333 18.3874016,1.33333333 19.0440944,0.933333333 C19.7007874,0.533333333 20.4888189,0.533333333 21.408189,0.533333333 C22.327559,0.533333333 22.984252,0.666666667 23.7722835,0.933333333 C24.4289764,1.2 25.0856693,1.6 25.4796851,2.26666667 C26.0050394,2.8 26.2677165,3.6 26.5303937,4.4 C26.7930709,5.2 26.9244095,6.26666667 26.9244095,7.33333333 C26.9244095,8.4 26.7930709,9.33333333 26.5303937,10.2666667 C26.2677165,11.0666667 25.8737007,11.8666667 25.4796851,12.4 C24.9543307,12.9333333 24.4289764,13.3333333 23.7722835,13.7333333 C23.1155905,14 22.327559,14.1333333 21.408189,14.1333333 C19.9634646,14 18.7814173,13.6 17.8620473,12.8 Z M19.3067716,10.2666667 C19.7007874,11.2 20.3574804,11.7333333 21.2768504,11.7333333 C21.8022047,11.7333333 22.1962205,11.6 22.4588977,11.3333333 C22.7215748,11.0666667 22.984252,10.8 23.2469291,10.4 C23.3782678,10 23.5096063,9.6 23.640945,9.06666667 C23.640945,8.53333333 23.7722835,8.13333333 23.7722835,7.6 L23.7722835,6.13333333 C23.7722835,5.6 23.640945,5.06666667 23.5096063,4.66666667 C23.3782678,4.13333333 23.1155905,3.73333333 22.8529133,3.46666667 C22.5902362,3.2 22.0648818,2.93333333 21.408189,2.93333333 C20.751496,2.93333333 20.3574804,3.06666667 20.0948032,3.33333333 C19.8321259,3.6 19.5694488,4 19.4381102,4.53333333 C19.3067716,4.93333333 19.1754331,5.46666667 19.1754331,6 L19.1754331,7.33333333 C19.1754331,7.86666667 19.1754331,8.4 19.3067716,8.93333333 C19.0440944,9.2 19.1754331,9.73333333 19.3067716,10.2666667 Z" id="Shape"></path>
                                        <path d="M39.007559,0.666666667 L39.007559,0.666666667 L39.1388977,13.6 C38.6135433,13.7333333 38.088189,13.7333333 37.431496,13.7333333 C36.7748032,13.7333333 36.1181102,13.7333333 35.5927559,13.6 L32.703307,6.8 C32.3092914,6 32.0466142,5.2 31.6525984,4.13333333 L31.6525984,4.13333333 C31.783937,6 31.9152755,7.86666667 31.9152755,9.73333333 L31.9152755,13.4666667 C31.5212599,13.6 31.1272441,13.6 30.4705512,13.6 C29.9451968,13.6 29.4198425,13.6 29.1571653,13.4666667 L29.1571653,0.666666667 C29.6825196,0.533333333 30.2078741,0.533333333 30.8645669,0.533333333 C31.5212599,0.533333333 32.1779527,0.533333333 32.5719685,0.666666667 L35.4614173,7.33333333 C35.9867716,8.53333333 36.3807874,9.46666667 36.6434646,10.1333333 L36.7748032,10.1333333 C36.6434646,8.4 36.5121259,6.53333333 36.5121259,4.53333333 L36.5121259,2.26666667 C36.5121259,1.6 36.6434646,1.2 36.9061417,0.8 C37.1688189,0.533333333 37.5628347,0.4 38.2195275,0.4 L39.007559,0.4 L39.007559,0.666666667 Z" id="Shape"></path>
                                        <path d="M44.7864567,9.86666667 L44.7864567,11.2 L44.7864567,11.2 L46.0998425,11.2 L50.4340158,11.2 L50.4340158,12.2666667 C50.3026772,13.2 49.6459842,13.7333333 48.5952755,13.7333333 L43.6044095,13.7333333 C43.079055,13.7333333 42.6850394,13.6 42.2910236,13.2 C42.0283464,12.9333333 41.8970079,12.4 41.8970079,11.8666667 L41.8970079,0.8 L42.0283464,0.666666667 L50.04,0.666666667 C50.1713387,1.06666667 50.1713387,1.46666667 50.1713387,1.86666667 C50.1713387,2.26666667 50.04,2.8 49.9086613,3.2 L44.9177953,3.2 L44.9177953,4.53333333 L44.9177953,5.86666667 L46.2311811,5.86666667 L49.1206299,5.86666667 C49.2519685,6.26666667 49.2519685,6.66666667 49.2519685,7.06666667 C49.2519685,7.46666667 49.2519685,8 49.1206299,8.26666667 L45.0491338,8.26666667 L45.0491338,9.86666667 L44.7864567,9.86666667 Z" id="Shape"></path>
                                        <path d="M57.2636221,4 L58.5770079,0.8 C58.8396851,0.666666667 59.3650394,0.666666667 59.759055,0.666666667 C60.2844095,0.666666667 60.8097638,0.8 61.2037795,0.933333333 L61.3351182,1.06666667 L57.7889764,9.73333333 L57.7889764,13.7333333 C57.3949606,13.8666667 56.8696063,13.8666667 56.344252,13.8666667 C55.687559,13.8666667 55.2935433,13.8666667 54.8995275,13.7333333 L54.8995275,9.73333333 L51.3533858,1.2 C51.8787401,0.8 52.4040944,0.666666667 52.9294488,0.666666667 C53.4548032,0.666666667 53.8488189,0.8 54.111496,0.933333333 C54.3741732,1.06666667 54.5055119,1.46666667 54.768189,1.86666667 L55.687559,4.13333333 C55.9502362,4.93333333 56.344252,5.86666667 56.4755905,6.8 L56.6069291,6.8 C56.4755905,6 56.7382678,5.06666667 57.2636221,4 Z" id="Shape"></path>
                                    </g>
                                    <g id="Group" transform="translate(61.729133, 0.000000)">
                                        <path d="M4.99086613,12.2666667 L10.9011024,6.4 L10.9011024,3.73333333 C10.9011024,2.26666667 9.71905512,0.4 8.4056693,0 L2.49543307,5.86666667 C3.94015748,6.26666667 4.99086613,8 4.99086613,9.6 L4.99086613,12.2666667 Z" id="Shape" fill="#051020"></path>
                                        <g transform="translate(0.000000, 9.563218)">
                                            <path d="M1.18204724,8.43678161 L1.18204724,14.4367816 C2.75811023,17.3701149 6.17291338,20.3034482 6.17291338,20.3034482 L6.17291338,18.7034482 L5.38488189,18.0367816 L5.38488189,17.5034482 L6.17291338,18.1701149 L6.17291338,16.5701149 L5.38488189,15.9034482 L5.38488189,15.1034483 L6.17291338,15.7701149 L6.17291338,14.3034483 L5.38488189,13.6367816 L5.38488189,12.8367816 L6.17291338,13.5034483 L6.17291338,11.9034483 L4.85952755,10.5701149 L6.17291338,9.90344827 L6.17291338,8.30344827 L2.3640945,9.63678161 L1.18204724,8.43678161 Z" id="Shape" fill="#FFFFFF"></path>
                                            <polygon id="Path-2" fill="#051020" points="1.64173228 3.48990304 6.29994175 7.94068672 7.05281415 7.13977304 0.547244095 0.923890059 0.547244095 16.8101379 5.77879672 21.2054554 6.47947099 20.357763 1.64173228 16.2933103"></polygon>
                                        </g>
                                        <g transform="translate(5.253543, 5.333333)" fill="#051020">
                                            <path d="M6.0415748,9.33333333 L6.96094488,8.13333333 L6.96094488,16.9333333 C6.96094488,18.2666667 6.69826772,19.3333333 6.30425196,19.8666667 C6.17291338,20.1333333 0.788031496,25.6 0.788031496,25.6 L0.788031496,9.2 C0.788031496,8.53333333 1.05070866,7.86666667 1.57606299,7.46666667 C1.70740158,7.33333333 1.83874016,7.33333333 1.97007874,7.2 C2.10141732,7.06666667 2.3640945,6.93333333 2.49543307,6.93333333 C2.75811023,6.8 3.15212599,6.8 3.41480315,6.8 L3.67748032,6.8 C4.99086613,6.8 6.0415748,8 6.0415748,9.33333333 Z M0.919370079,14 L1.70740158,13.3333333 C2.49543307,12.5333333 2.62677165,11.7333333 2.3640945,11.6 C2.2327559,11.4666667 2.10141732,11.3333333 1.70740158,11.7333333 L0.919370079,12.5333333 L0.919370079,14 Z M3.41480315,20.5333333 L0.919370079,22.9333333 L0.919370079,24.5333333 L3.41480315,22.1333333 C4.20283464,21.3333333 4.33417322,20.6666667 4.07149606,20.4 C3.94015748,20.2666667 3.67748032,20.2666667 3.41480315,20.5333333 Z M4.5968504,17.0666667 L1.05070866,20.8 L1.05070866,22.4 L4.5968504,18.9333333 C5.38488189,18.1333333 5.64755905,17.2 5.38488189,17.0666667 C5.12220473,16.8 4.85952755,16.8 4.5968504,17.0666667 Z M4.99086613,14.4 L1.05070866,18.5333333 L1.05070866,20 L4.99086613,16.2666667 C5.77889764,15.4666667 6.0415748,14.5333333 5.77889764,14.4 C5.51622047,14.1333333 5.25354331,14.1333333 4.99086613,14.4 Z M3.67748032,13.3333333 L0.919370079,16.1333333 L0.919370079,17.7333333 L3.54614173,15.0666667 C4.33417322,14.2666667 4.5968504,13.3333333 4.33417322,13.2 C4.20283464,13.0666667 3.94015748,13.0666667 3.67748032,13.3333333 Z" id="Combined-Shape"></path>
                                            <path d="M6.0415748,9.33333333 L12.0831496,3.33333333 C12.0831496,2 10.9011024,0.666666667 9.45637795,0.666666667 C8.66834646,0.666666667 7.88031496,1.06666667 7.35496063,1.73333333 C7.35496063,1.73333333 2.62677165,6.4 1.70740158,7.33333333 C2.2327559,6.93333333 2.75811023,6.66666667 3.41480315,6.66666667 C4.85952755,6.66666667 6.0415748,7.86666667 6.0415748,9.33333333 Z" id="Shape"></path>
                                        </g>
                                    </g>
                                </g>
                            </g>
                        </g>
                    </g>
                </g>
            </g>
        </g>
    </g>
</svg>